# xmcd
#
# Track frame offsets: 
#        150
#        12116
#        34449
#        53290
#        69070
#        83579
#        103712
#        119855
#        133941
#        147557
#        176744
#        190148
#        206760
#        223502
#        239733
#        263390
#        278703
#        292844
#        310272
#        326654
#
# Disc length: 4554 seconds
#
# Revision: 0
# Processed by: cddbd v1.5.2PL0 Copyright (c) Steve Scherf et al.
# Submitted via: ExactAudioCopy v0.99pb4
#
DISCID=2b11c814
DTITLE=Various Artist - 100 Essential Tracks - Disco Hits - CD1
DYEAR=2010
DGENRE=Disco
TTITLE0=Eruption - I Can't Stand The Rain
TTITLE1=Odyssey - Use It Up And Wear It Out
TTITLE2=Gonzalez - Haven't Stopped Dancing Yet
TTITLE3=Melba Moore - This Is It
TTITLE4=The Isley Brothers - That Lady
TTITLE5=The Jacksons - Goin' Places
TTITLE6=Tavares - Whodunnit
TTITLE7=The O'Jays - Backstabbers
TTITLE8=KC and The Sunshine Band - Sound Your Funky Horn
TTITLE9=Brass Construction - Music Makes You Fell Like Dancin'
TTITLE10=Sly and The Family Stone - Dance To The Music
TTITLE11=The Emotions - Best Of My Love
TTITLE12=Dan Hartman - Relight My Fire
TTITLE13=A Taste Of Honey - Boogie Oogie Oogie
TTITLE14=The Weather Girls - I'm Gonna Wash That Man Right Outa My Hai
TTITLE14=r
TTITLE15=The Tymes - Ms. Grace
TTITLE16=Hot Chocolate - Disco Queen
TTITLE17=The Three Degrees - Givin' Up Givin' In
TTITLE18=Billy Griffin - Hold Me Tighter In The Rain
TTITLE19=George McCrae - Rock You Baby
EXTD=
EXTT0=
EXTT1=
EXTT2=
EXTT3=
EXTT4=
EXTT5=
EXTT6=
EXTT7=
EXTT8=
EXTT9=
EXTT10=
EXTT11=
EXTT12=
EXTT13=
EXTT14=
EXTT15=
EXTT16=
EXTT17=
EXTT18=
EXTT19=
PLAYORDER=
